<svg fill="currentColor" xmlns="http://www.w3.org/2000/svg" viewBox="0 0 379 217.88"><path d="M336.56,137.18l.08-10.07-.76-5.76c-.69-3.22-2.03-6.14-4.3-8.54-2.74-2.91-6.52-5.6-10.35-6.85l-28.03-9.19c-2.97-.96-5.71-2.05-8.78-2.6-1.19-.2-2.57.29-3.76.58l-28.57,6.85c-.8.2-1.08.23-1.84-.11l-13.25-6.02-36.2-16.55-14.7-6.66-21.4-14.46-54.18-23.16-25.08-10.69c-1.61-.68-3.02-1.13-4.75-1.22l-5.81-.3-6.37-.25c-.7-.03-1.22.22-1.74.82L26.77,8.57C20.37,6.27,14.17,3.95,7.67,2.05L.09.32c-.15.09-.12.3.09.39,1.97,1.66,4.06,3,6.31,4.22l8.22,4.39,47.54,23.61c-.06.99.23,1.74.87,2.4l4.17,4.27,4.33,4.34c.96.97,2.13,1.35,3.43,1.9l38,16.21,42.49,18.05,25.28,5.95,65.83,26.44,10.83,19.07,5.1,8.73c1.01,1.76,2.45,2.65,4.18,3.56l20.44,10.76,11.05,5.78c4.44,2.32,10.69,3.41,15.6,2.2,3.5-.86,6.43-2.79,9.15-5.05l1.78-1.49,6.94-6.71,3.39-3.49c.5-.5,1.15-1.08,1.18-1.82l.23-4.35.04-2.49ZM64.09,28.3l-7.88-3.79c.05-.09.15-.17.28-.18l7.84,2.87c.31.15-.08,1.06-.24,1.11ZM74.92,40.37l-7.25-7.42,2.19-5.96,11.22.53c1,.04,1.88.71,2.94,1.09l-5.73,13.25-3.37-1.48ZM82.8,43.89l5.74-13.41,20.42,8.73-5.74,13.41-20.42-8.73ZM107.71,54.5l5.69-13.35,25.98,11.1-5.69,13.35-25.98-11.1ZM154,74.16l-15.76-6.7,5.63-13.26,15.76,6.7-5.63,13.26ZM179.25,80.65l-20.61-4.82,5.38-12.57,17.62,11.86-2.39,5.53ZM221.11,96.9l-37.01-14.83,1.98-4.38,25.24,11.42,53.89,24.62,2.5,1.2c-.03.12,0,.41-.1.46-.08.03-.33-.06-.43-.02l-16.94-6.76-29.13-11.7ZM327.46,146.55l-6.47,6.2-4.9,3.76c-1.45,1.11-3.28,1.33-5.12,1.52-3.51.36-7.01-.19-10.21-1.88l-25.58-13.48-7.66-4.15-2.9-4.37-10.55-18.59,29.5,11.63,15.87,6.33,29.25,11.67-1.23,1.36ZM331.57,138.82l-39.58-18.13-27.23-12.54-6.27-2.93,19.11-4.65,6.17-1.35c1.13-.25,2.44.38,3.59.76l14.26,4.68,17.46,5.73c3.36,1.09,6.3,2.97,8.66,5.52,1.56,1.69,2.37,3.73,3.23,5.84.4,2.01.88,3.98.83,6.08l-.23,10.99Z" /><rect width="379" height="217.88" fill="none"/></svg>