<svg fill="currentColor" xmlns="http://www.w3.org/2000/svg" viewBox="0 0 310.28 254.13">
  <path d="M302.44,189.32c-5.21-1.22-8.27.45-11.1,4.8l-14.65-6.94c-5.29-2.5-.98-7.04-6.62-9.24-3.75-1.47-7.51-.96-11.45-.1l-26.89,5.8c-5.11,1.11-10.25,2.62-14.37,5.86-5.06,3.96-6.9,10.95-10.91,13.34-3.34,1.99-6.24,4.41-8.68,7.47-3.19,4-6.36,7.93-8.22,12.77-1.11,2.88-.46,6.2.47,9.07l3.97,12.23,2.51,9.75h5.01l-7.71-26.65c-.54-1.83.61-4,1.47-5.55,3-5.4,6.97-10.16,11.79-14,1.56-1.25,3.63-1.67,4.75-3.4l4.93-7.54c1.27-1.95,2.6-3.55,4.65-4.69,4.53-2.53,9.33-3.79,14.48-4.89l25.91-5.51c2.5-.53,5.07-.28,7.26.64-.48,6.78,5.35,8.83,10.92,11.42l9.37,4.34c2.49,1.16,5.38-.14,6.49-2.63,1.71-3.84,9.41-.88,14.44.87v-5.29l-7.84-1.93h0Z" />
  <path d="M.58,242.45c-.37,5.46,5.53,11.29,10.98,11.68h8.89l-5.2-3.15s-14.67-8.53-14.67-8.53Z" />
  <path d="M45.5,254.13h24.7c-6.75-3.38-16.79-1.43-24.7,0Z" />
  <path d="M266.17,78.07c.96-2.32,3.25-3.78,5.39-4.96,5.51-2.57,10.96-5.35,16.34-8.33,3.1-2.18,5.92-4.65,8.46-7.39,0,0,4.34,4.06,13.02,12.18l.9-.26v-6.67c-15.71-15.43-33.94-28.33-53.7-38.46C191.68-9.07,114.95-8.03,51.15,27.31,32.92,37.42,16.25,49.85,1.54,64.49c-.59.59-.89.93-1.54.69v6.67c.51.06.87-.16,1.34-.65,7.16-7.49,14.78-14.19,22.9-20.76l11.2.36c5.04-.21,9.44-1.59,14.12-3.15l8.89-.47c6.61-.35,8.78-3.18,12.46-.94,2.86,1.75,7.72-1.06,9.63.1,1.67,1.01,3.01,2.69,4.19,4.27l9.12,12.25,4.44,6.26c-3.39.61-5,2.84-7.81,4.49-1.91,1.11-6.71.92-8.47-.37-2.81-2.33-4.69-4.98-7.7-7.01-5-3.36-10.86-4.38-15.17-.19-4.3,4.18-8.72,7.89-13.59,11.41-4.45,3.22-4.53,6.54-8.44,10.11-4.47,4.09.17,11.29,3.61,16.38,1.95,2.88,4.74,4.87,8.68,4.52,8.21-.71,16.57-3.66,22.94-9.01,2.2-1.85,3.7-3.32,6.96-3.39,2.84-.06,6.8-.85,9.37,1.14,4.1,3.18,9.03,13.03,20.29,21.69,1.82,1.4,3.37,3.29,4.36,5.3l3.78,7.58c1.3,2.62.16,5.84-1.15,8.42-5.46,10.69-20.54,11.68-32.13,13.54l-13.58,2.18c-1.71.28-3.77,2.11-3.43,3.96.68,3.69,6.93,4.4,4.44,6.35l-17.65,13.81-3.34,1.1-3.12,3.76c-2.93,2.75-4.77,5.96-5.88,9.92l-1.67,5.99c-3.79,1.82-7.8,3.56-12.13,3.52l-14.87-.13c-3.62-.03-6.09.91-8.54,3.5-2.13,2.24-3.72,4.42-3.32,7.83.29,2.5,1.88,4.8,4.48,6.35,3.46,2.06,6.21,4.64,8.87,7.64l8.76,9.85c2.13,2.41,4.17,4.81,5.55,7.76,1.25,2.66,2.8,4.94,4.55,6.98h7.72c-.16-.67-1.19-.69-1.87-1.23-2.08-1.64-3.79-3.85-5.07-6.21-2.99-5.57-6.9-10.08-11.11-14.74l-4.02-4.43c-3.46-3.81-6.77-7.2-11.18-9.84-1.03-.61-2.34-2.14-1.97-3.45.56-1.99,2.65-4.6,4.74-5.14l17.3.1c4.74-.39,9.2-1.87,13.48-3.73,1.67-.72,2.87-1.89,3.34-3.61l1.64-5.99c.76-2.75,1.87-5.07,4.07-6.87.8-1.63,2.05-2.75,3.91-2.92l21.31-17.06c1.51-1.2,2.95-2.98,2.66-4.87-.32-2.11-2.37-2.71-4.31-3.76,2.26-1.05,4.47-1,6.75-1.31,8.09-1.11,15.92-2.2,23.75-4.47,5.65-1.62,10.76-4.47,14.23-9.18,2.35-3.18,3.79-6.96,3.99-10.85.16-3.25-1.36-5.85-2.59-8.65-2.03-4.63-4.85-8.59-8.9-11.69-9.8-7.52-13.52-16.24-19.16-20.78-3.41-2.75-8.33-2.53-12.41-2.17-8.24.72-9.43,5.27-15.03,8.08-4.58,2.29-9.5,3.72-14.56,4.4-2.28.3-3.83-.72-5.03-2.59-1.87-2.87-4.48-6.09-4.42-9.66,4.01-3.94,4.51-7.51,9.22-11.02,5.13-3.82,9.86-7.75,14.38-12.31,3.19-.4,6.37.28,8.58,2.5l4.62,4.63c1.04,1.05,1.89,2.26,3.48,2.64,3.47.83,7.16,1.29,10.76.69,1.97-.33,3.45-1.93,4.79-3.2,2.5-2.37,5.95-.82,7.36-2.64,2.28-2.93-3.78-10.07-6.68-13.98l-9.44-12.74c-5.94-8.02-12.4-3.12-14.39-4.22-2.28-1.27-4.71-1.75-7.29-.89-7.45,2.51-14.27.96-17.4,2.05-5.7,1.99-11.29,3.57-17.72,2.84,16.3-11.79,33.89-21.18,52.66-28.14,6.81-2.52,13.21-4.61,20.49-6.22-1.97,2.49-3.58,4.54-4.37,7.34-.69,2.46.19,4.76,2.49,5.88,4.48,2.17,8.24,1,9.93,4.62l4.37,9.4c-1.06,1.8-1.9,3.88-2.22,6.02l-1.38,9.1-3.15,7.33c-2.07,6.05-.8,12.94,2.8,18.16,2.24,3.25,5.43,5.04,8.48,7.33.56,1.31.72,3.14,1.93,4.13,4.05,3.34,9.21,4.76,15.11,9.13,2.03,1.49,4.84,1.19,6.57-.68,7.14-7.68,8.07-17.3,18.29-24.96,5.75-4.32,11.22-8.84,16.29-13.9l8.93-8.89c7.4-6.05,10.83-10.41,13.52-20,1.65-5.89-2.18-9.1-.95-10.25,3.34-3.11,6.45-6.17,9.23-10.02,29.9,7.72,58.62,22.04,82.91,41.66-6.85,10.27-18.46,10.69-28.05,18.62-5.2,4.31-3.6,9.61-5.43,13.25-1.16,2.31-3.71,3.32-5.7,4.74-3.46,1.63-5.03,4.87-4.21,8.61-.97,2.95.58,5.82,3.63,6.33l9.6.65c5.38.36,10.58.58,15.84-.35,2.27-.4,3.46-2.05,4.64-3.92l4.82-7.63c1.49-2.36,2.88-4.15,5.44-4.76,1.97-.47,5.63-.59,6.66,1.72.81,4.05,1.63,11.4-.63,12.81l-10.72,6.71c-2.19,1.37-4.29,3.21-7.08,2.95l-12.09-1.09c-2.84-.25-5.64.09-8.23.97-2.89.98-4.76,2.66-5.82,5.62-.83,2.31-3.42,5.45-6.12,4.99-3.79-4.44.81-11.56-3.23-14.12-6.57-4.16-13.11-4.96-20.41-2.59-2.12.69-3.1,2.61-2.7,4.65l.85,4.31-5.33,2.11c-5.37,2.13-11.47,4.35-9.1,10.38,1.06,2.68,2.64,4.77,5.19,6.17,7.53,4.14,13.67,2.5,14.95,4.01.92,1.09,1.93,2.64,1.91,4.1l-.12,8.83c-2.62-.62-4.59.97-6.96,1.4l-7.27,1.32-6.9,11.24c-1.37,2.23-2.59,5.45-1.27,7.89.81,1.52,2.48,3.2,3.93,4.06l6.35,3.78c3.64,2.16,7.79,3.03,11.8,1.91,5.63-1.56,13.15-4.94,12.92-10.54-.16-3.78,4.52-3.84,7.24-8.55l.94-2.82c3.81-.51,7.54-1.05,11.11-2.48,1.12-.45,2.13-.31,2.93.62,3.01,3.46,6.59,6.1,10.58,8.37.8.46,1.56,1.07,1.6,2.08l.19,5.04c.61,2.2,3.01,2.17,4.64,1.47,3.06-1.31,4.56-3.47,5.29-6.64,2.09-9.06-4.6-7.4-9.22-14.48l5.8,3.92c1.33.9,3.52,1.78,4.18,3.37,1.28,4.52,2.43,9.28,5.91,12.76,1.4,1.41,4.9,2.73,6.79,2.31,1.99-.7,3.1-4.22,2.87-5.95-.28-2.1.41-3.83,2.53-3.99l3.33-.08v-4.54c-.34-1.27-2.63-1.01-3.8-.84-4.98.73-8.01,4.3-7.59,9.34-1.99-1.49-2.9-3.99-3.67-6.3-.78-4.05-1.17-5.71-4.37-8.52-1.73-1.52-11.32-8.36-13.04-8.83-2.08-.56-3.63-.1-4.96,1.61-3.11,4.02,1.59,9.64,4.45,12.47-3.41-2.29-6.55-4.91-9.43-7.86-1.47-.96-3.3-1.29-5.02-1.02-4.32,1.62-8.68,2.5-13.28,2.88-2.29.71-3.52,2.64-3.7,5.79-1.55,1.67-3.3,3.14-5.25,4.37-1.45,1.84-2.39,4.02-2.8,6.55-4.8,6.96-14.07,6.55-20.3,1.49-1.66-.53-2.91-1.73-3.73-3.61,1.75-4.07,3.94-7.89,6.55-11.45,2.93-.3,5.99-.74,8.65-2.12,6.29,2.71,7.21-2.82,7.6-7.9.51-6.87.13-13.66-7.08-16.41-5.51.06-10.23-1.38-14.13-4.31-1.86-1.89-1.27-3.2,1.76-3.94,3.64-1.1,7.03-2.6,10.17-4.51,2.04-2.09,2.38-4.79,1.03-8.09,4.75-1.49,9.44-.29,13.76,1.82-2.73,12.17,5.63,22.02,15.69,11.3l3.72-6.01c1.55-1.27,3.67-1.36,5.6-1.32l14.73,1.05,3.19-.45c5.64-2.86,11.13-6.02,16.45-9.48,2.99-2.47,4.38-4.56,4.74-8.48.23-2.59-.16-10.57-1.64-12.59-4.67-6.39-14.39-5.7-19.45-.07-2.71,4.18-5.48,8.31-8.32,12.36-7.48.53-15.02.52-22.61-.05.32-1.19.41-2.51.28-3.96,3.12-1.98,6.02-4.23,8.73-6.72,1.43-3.33,2.41-6.88,2.97-10.65h0ZM199.61,15.4c-1.59,1.88-6.79,3.81-3.78,9.74,1.07,2.1,1.11,4.06.41,6.26-1.08,3.42-2.24,6.8-4.54,9.64l-7.99,7.74-6.57,6.39-6.63,6.67-13.01,10.44c-4.12,3.3-7,7.68-9.56,12.24l-4.65,8.28c-.69,1.23-1.47,2.26-2.81,3.2l-13.06-7.41c-3.17-1.8-.43-3.87-2.99-5.36-2.51-1.45-5.13-2.81-7.12-4.98-3.7-4.04-4.88-9.57-3.94-14.91,1.73-2.87,3.08-5.73,4.04-8.93l1.43-10.27c.35-2.48,3.71-3.41,2.13-6.71l-4.44-9.28c-1.36-2.82-3.35-4.98-6.37-5.82l-6.39-1.76c.45-2.52,2.13-4.23,3.76-5.96l4.96-5.26c30.33-6.44,61.18-6.13,91.7.66,0,0-4.57,5.4-4.57,5.4Z" />
</svg>