<svg fill="currentColor" xmlns="http://www.w3.org/2000/svg" viewBox="0 0 537.81 423.43">
  <path d="M154.23,85.64c.82,1.79.31,3.09-.72,3.76-.91.59-2.96.52-3.6-.89l-29.76-65.13c-.64-1.41.14-2.71,1.16-3.22,1.07-.54,2.66-.41,3.37,1.14l29.55,64.35h0Z" /> 
  <path d="M324.46,103.55c-1.27,1.71-2.26,2.24-3.99,1.31-1.27-.69-1.53-2.42-.34-4.02l42.72-57.49c.81-1.09,2.58-.56,3.23-.09.7.49,1.45,2.17.6,3.32,0,0-42.23,56.99-42.23,56.99Z" />
  <path d="M241.72,73.49c-.17,1.7-1.53,2.31-2.38,2.37-1.12.07-2.82-.69-2.65-2.34l7.22-70.93c.2-1.87,1.27-2.63,2.66-2.59,1.63.04,2.52,1.2,2.31,3.15l-7.16,70.34h0Z" />
  <path d="M456,423.43h-5.53l-1.53-.49-8.54-19.15c-2.99-5.38-6.45-7.25-12.43-5.26l-51.32,23.66-5.52,1.23h-12.55l45.65-21.02c-14.46-18.56-13.19-42.05-4.24-63.1,8.43-19.81,12.99-40.62,12.85-62.25l-2.39-29.91c-1.14-14.31-2.04-28.11-.47-42.39.7-6.38-.31-12.45-2.81-18.15-3.97-9.09-16.86-6.15-25.41-1.16-5.54,3.23-9.55,8.02-11.61,14.15-5.19,15.45-4.38,39.17-3.7,56.51.06,1.41-1.29,2.15-2.32,2.2-.84.05-2.21-.2-2.82-1.53l-55.15-120.31c-2.78-6.06-10.95-9-16.74-9.12-6.31-.14-11.34,2.98-15.25,7.33-5.17,5.73-5.91,13.84-2.7,20.91l15.89,34.98,34.44,75.37c.64,1.39-.61,2.52-1.37,2.79-1.23.44-2.82.02-3.55-1.57l-55.99-122.37-7.14-15.13c-3.79-8.03-15.91-14.69-24.65-11.11,8.67,9.25,8.75,23.84,1.73,33.69l-5.55,7.79c10-2.38,19.97.8,26.51,8.76,7.4,9,6.72,22.26-.69,31.16l-4.93,6.69c12.61-1.06,25.1,5.47,30.05,17.1,2.87,6.75,2.09,14.08-2.28,20.08l-6.88,9.4,14.11,31.78c.61,1.38-.42,2.8-1.42,3.15-1.32.46-2.54.02-3.2-1.4l-13.21-28.44-26.66,37.04,4.04,8.67c.51,1.09,0,2.33-.7,2.94-.76.65-2.63.95-3.26-.22l-3.52-6.63-26.87,36.88,17.33,35.42c4.5,9.2,9.34,17.69,15.3,25.96l16.75,17.29c2.4,2.47,4.71,4.8,5.98,7.78h-6.55c-2.21-1.35-4.17-3.2-5.89-5.54-6.96-6.65-13.5-13.81-19.6-21.5-9.49-17.4-18.5-34.9-27.04-52.48-12.53,18.2-26.34,35.25-41.4,51.13-10.13,7.11-20.04,14.55-29.75,22.29-2.27,2.72-4.85,4.76-7.73,6.1h-6.63c-.04-.97.66-1.46,1.37-2.24,6.83-7.55,14.41-13.8,22.79-19.6l14.13-9.8,9.84-9.95c14-16.54,26.82-33.6,39.62-51.21l63.33-87.15c5.28-7.27,6.77-15.11.53-22.84-3.91-4.83-10.54-8.42-17.11-9.24-5.95-.75-10.62,2.26-14.01,6.92l-60.71,83.64c-.98,1.37-2.87,1.21-3.87.29-1.19-1.11-.87-2.3.27-3.88l76.19-105.24c3.69-5.1,3.2-13.13.31-18.25-3.24-5.74-9-9.9-15.7-10.59-5.29-.54-12.85,1.37-16.3,6.1l-76.83,105.23c-1,1.37-2.27,1.49-3.41.93-.95-.47-1.86-2.08-.87-3.43l89.16-122.68c3.59-4.93,5.2-9.6,4.98-15.77-.4-10.86-10-19.51-21.15-17.15-5.49,1.15-11.42,4.17-14.91,8.95l-90.13,123.52c-.85,1.16-2.4.97-3.24.66s-1.87-2.13-.88-3.48l74.19-101.96c3.22-6.93,2.67-14.71-1.8-20.72-4.37-5.1-10.41-8.39-17.14-7.85-7.14.56-12.42,4.77-16.56,10.46l-64.86,89.08-10.88,14.97c-.71.98-2.22.98-2.95.59-1.08-.57-1.48-1.72-1.21-3.02l5.79-28.21c1.87-9.11,2.52-18.12,1.61-27.32-1.18-11.94-10.57-20.54-21.88-23.43-10.61-2.71-16.93,9.77-18.03,20.27-1.39,13.41-4.2,25.99-8.28,38.84-8.11,25.48-16.57,52.76-12.02,79.48l3.58,21.03c2.22,13.07,1.06,26.08-3.95,38.3l-3.82,6.32c-.55.92-1.48,1.29-2.29,1.31v-8.41c3.75-10.13,5.88-20.77,4.48-31.67-2.08-11.93-3.58-23.87-4.51-35.81l.25-15.48,1.18-7.17c1.02-10.45,3.44-20.36,6.49-30.4l7.8-25.69c3.21-10.59,5.15-20.96,6.25-31.94,1.3-12.83,10.24-27.45,23.62-23.86,6.03,1.61,11.65,4.54,16.4,8.56,16.77,14.21,8.78,43.46,5.09,63.98l70.18-95.79c6.51-8.89,17.51-11.9,27.49-8.69,9.5,3.05,16.4,11.18,17.04,22.2l8.41-10.95c8.09-10.53,21.91-15.49,34.02-9.22,12.87-6.11,28.4.7,34.35,12.88l6.45,13.24c3.45-11.35,14.01-19.4,25.83-18.64,10.02.64,17.51,6.1,21.58,15.01l48.32,105.88,1.15-28.69c.44-10.99,5.29-25.38,14.81-31.89,5.71-3.91,12.48-6.24,19.44-6.8,7.63-.62,14.24,3.37,16.48,10.63,1.54,5,3.07,10.35,2.54,15.77-1.2,12.29-1.67,24.09-.47,36.43l2.43,25.12c2.83,29.29-2.77,53.93-13.74,80.65-7.55,18.41-7.39,39.75,5.58,55.66l16.87-7.49c7.86-3.49,16.53.2,20.05,8.03l10.1,22.7h0Z" />
  <rect width="537.81" height="423.43" fill="none"/>
</svg>